<svg width="180" height="180" viewBox="0 0 180 180" fill="none" xmlns="http://www.w3.org/2000/svg">
<g clip-path="url(#clip0_1461_205)">
<path d="M1.78363 168.956C-5.67345 160.674 10.6921 136.045 42.6419 103.529C43.6887 107.031 45.1219 110.366 46.8921 113.486C26.4341 133.577 20.0164 143.517 24.6284 148.639C29.2589 153.782 39.8196 148.307 62.0828 129.844C65.0986 131.865 68.3547 133.555 71.799 134.864C35.9215 163.434 9.32801 177.335 1.78363 168.956Z" fill="#FA4300"/>
<path d="M117.002 50.2997C114.06 48.2003 110.873 46.4224 107.493 45.0172C143.728 16.0905 170.638 1.98727 178.23 10.4194C185.778 18.8025 168.731 44.109 135.724 77.4285C134.785 73.8297 133.442 70.3943 131.745 67.1737C153.153 46.354 160.154 36.0321 155.469 30.8293C150.802 25.646 139.807 31.3965 117.002 50.2997Z" fill="#FA4300"/>
<path d="M95.2383 170.347H114.456V143.627H118.668L139.465 170.347H161.973L146.441 149.551C141.176 142.311 137.227 138.757 132.357 136.783V132.308C136.569 130.596 140.123 127.701 145.783 120.461L160.788 102.56H138.412L118.668 125.2H114.456V78.2095H95.2383V170.347Z" fill="#FA4300"/>
</g>
<defs>
<clipPath id="clip0_1461_205">
<rect width="180" height="180" fill="white"/>
</clipPath>
</defs>
</svg>
